HIERARCHY
ROOT joint_Root
{
	OFFSET 0.0 0.0 0.0
	CHANNELS 6 Xposition Yposition Zposition Zrotation Xrotation Yrotation 
	JOINT Hips
	{
		OFFSET -17.1583 93.1646 452.98
		CHANNELS 6 Xposition Yposition Zposition Zrotation Xrotation Yrotation 
		JOINT Spine
		{
			OFFSET 15.7357 0.0 0.0
			CHANNELS 6 Xposition Yposition Zposition Zrotation Xrotation Yrotation 
			JOINT Chest
			{
				OFFSET 8.98455 -0.406207 0.0
				CHANNELS 6 Xposition Yposition Zposition Zrotation Xrotation Yrotation 
				JOINT Neck
				{
					OFFSET 16.3773 0.0 0.0
					CHANNELS 6 Xposition Yposition Zposition Zrotation Xrotation Yrotation 
					JOINT Head
					{
						OFFSET 6.45672 0.0 0.0
						CHANNELS 6 Xposition Yposition Zposition Zrotation Xrotation Yrotation 
						End Site
						{
							OFFSET 0.0 0.0 0.0
						}
					}
				}
				JOINT Shoulder_L
				{
					OFFSET 12.9942 -0.242716 4.98039
					CHANNELS 6 Xposition Yposition Zposition Zrotation Xrotation Yrotation 
					JOINT UpperArm_L
					{
						OFFSET 5.34809 0.0 0.0
						CHANNELS 6 Xposition Yposition Zposition Zrotation Xrotation Yrotation 
						JOINT LowerArm_L
						{
							OFFSET 24.3286 1.87007e-05 0.0
							CHANNELS 6 Xposition Yposition Zposition Zrotation Xrotation Yrotation 
							JOINT Hand_L
							{
								OFFSET 22.2916 0.0 0.0
								CHANNELS 6 Xposition Yposition Zposition Zrotation Xrotation Yrotation 
								End Site
								{
									OFFSET 0.0 0.0 0.0
								}
							}
						}
					}
				}
				JOINT Shoulder_R
				{
					OFFSET 12.9945 -0.242716 -4.98039
					CHANNELS 6 Xposition Yposition Zposition Zrotation Xrotation Yrotation 
					JOINT UpperArm_R
					{
						OFFSET -5.34813 0.0 0.0
						CHANNELS 6 Xposition Yposition Zposition Zrotation Xrotation Yrotation 
						JOINT LowerArm_R
						{
							OFFSET -24.3289 0.000322201 0.0
							CHANNELS 6 Xposition Yposition Zposition Zrotation Xrotation Yrotation 
							JOINT Hand_R
							{
								OFFSET -22.2915 -0.000108084 0.0
								CHANNELS 6 Xposition Yposition Zposition Zrotation Xrotation Yrotation 
								End Site
								{
									OFFSET 0.0 0.0 0.0
								}
							}
						}
					}
				}
			}
		}
		JOINT UpperLeg_L
		{
			OFFSET -2.19248 -6.46944 0.0
			CHANNELS 6 Xposition Yposition Zposition Zrotation Xrotation Yrotation 
			JOINT LowerLeg_L
			{
				OFFSET 39.0811 0.0 -1.23785e-05
				CHANNELS 6 Xposition Yposition Zposition Zrotation Xrotation Yrotation 
				JOINT Foot_L
				{
					OFFSET 40.9854 0.0 -1.26872e-05
					CHANNELS 6 Xposition Yposition Zposition Zrotation Xrotation Yrotation 
					JOINT Toes_L
					{
						OFFSET 11.7543 0.0 0.0
						CHANNELS 6 Xposition Yposition Zposition Zrotation Xrotation Yrotation 
						End Site
						{
							OFFSET 0.0 0.0 0.0
						}
					}
				}
			}
		}
		JOINT UpperLeg_R
		{
			OFFSET -2.19251 6.46944 0.0
			CHANNELS 6 Xposition Yposition Zposition Zrotation Xrotation Yrotation 
			JOINT LowerLeg_R
			{
				OFFSET -39.0811 -0.00228153 -0.0401928
				CHANNELS 6 Xposition Yposition Zposition Zrotation Xrotation Yrotation 
				JOINT Foot_R
				{
					OFFSET -40.9854 0.0 0.0
					CHANNELS 6 Xposition Yposition Zposition Zrotation Xrotation Yrotation 
					JOINT Toes_R
					{
						OFFSET -11.7543 0.0 0.0
						CHANNELS 6 Xposition Yposition Zposition Zrotation Xrotation Yrotation 
						End Site
						{
							OFFSET 0.0 0.0 0.0
						}
					}
				}
			}
		}
	}
}
MOTION
Frames:	7
Frame Time:	0.0333333
0.000000 0.000000 0.000000 0.000000 0.000000 -0.000000 -3.913320 92.913500 1.962550 87.956600 4.691760 1.150810 15.735700 0.000005 -0.000001 67.261900 87.333000 -65.662500 8.984550 -0.406207 -0.000000 -2.814760 -2.208480 3.145040 16.377300 -0.000001 -0.000001 2.652500 1.424830 -0.957885 6.456720 -0.000001 -0.000000 3.132450 2.563040 -2.685300 12.994200 -0.242716 4.980390 -92.412000 7.429670 -71.957300 5.348090 -0.000007 -0.000001 -75.069000 24.092300 2.322900 24.328600 0.000019 0.000005 11.991200 25.183700 -26.525700 22.291600 -0.000001 0.000005 -1.131640 4.906350 9.251010 12.994500 -0.242716 -4.980390 89.097400 2.993140 -73.209900 -5.348130 -0.000001 -0.000004 -73.018100 27.646600 -4.828050 -24.328900 0.000322 -0.000009 1.124660 5.318140 -11.969800 -22.291500 -0.000108 -0.000004 -15.152900 5.106160 4.972140 -2.192480 -6.469440 -0.000000 -171.404000 -5.217640 0.077287 39.081100 -0.000007 -0.000012 0.026443 -0.101666 14.579700 40.985400 -0.000006 -0.000013 -2.564330 14.176400 -68.881800 11.754300 -0.000000 0.000003 -0.002212 0.198965 -8.504340 -2.192510 6.469440 -0.000001 179.309000 10.254400 -177.314000 -39.081100 -0.002282 -0.040193 0.018189 -0.066593 12.574700 -40.985400 0.000008 0.000006 -4.503260 4.624770 -69.295800 -11.754300 -0.000006 -0.000006 -0.010052 0.271693 -5.535130
0.000000 0.000000 0.000000 0.000000 0.000000 -0.000000 -3.772860 92.911800 1.981880 87.950600 4.675760 1.151450 15.735700 0.000005 -0.000001 66.823200 87.286100 -65.418600 8.984550 -0.406207 -0.000000 -2.747900 -2.264260 2.755450 16.377300 -0.000001 -0.000001 2.501700 1.419560 -1.030840 6.456720 -0.000001 -0.000000 2.904520 2.554160 -2.870590 12.994200 -0.242716 4.980390 -92.402000 7.363950 -71.877800 5.348090 -0.000007 -0.000001 -74.775400 23.560200 2.314770 24.328600 0.000019 0.000005 12.102500 25.049300 -26.859500 22.291600 -0.000001 0.000005 -1.186330 4.899870 9.380510 12.994500 -0.242716 -4.980390 89.078200 2.997990 -72.900200 -5.348130 -0.000001 -0.000004 -72.598100 25.677600 -5.707950 -24.328900 0.000322 -0.000009 1.059470 5.711900 -10.536400 -22.291500 -0.000108 -0.000004 -15.129600 5.101140 5.087640 -2.192480 -6.469440 -0.000000 -171.512000 -5.091930 0.037232 39.081100 -0.000007 -0.000012 0.026598 -0.101496 14.684900 40.985400 -0.000006 -0.000013 -2.467450 14.010800 -68.864100 11.754300 -0.000000 0.000003 -0.001950 0.195715 -8.636510 -2.192510 6.469440 -0.000001 179.179000 10.378200 -177.260000 -39.081100 -0.002282 -0.040193 0.016848 -0.060944 12.501900 -40.985400 0.000008 0.000006 -4.622550 4.792710 -69.193600 -11.754300 -0.000006 -0.000006 -0.010226 0.272985 -5.482280
0.000000 0.000000 0.000000 0.000000 0.000000 -0.000000 -3.620310 92.917400 1.986090 87.905000 4.637180 1.072850 15.735700 0.000005 -0.000001 65.902700 87.264700 -64.722500 8.984550 -0.406207 -0.000000 -2.748030 -2.340970 2.304660 16.377300 -0.000001 -0.000001 2.444720 1.440180 -1.176330 6.456720 -0.000001 -0.000000 2.520000 2.550940 -3.134870 12.994200 -0.242716 4.980390 -92.411600 7.330870 -71.734100 5.348090 -0.000007 -0.000001 -74.356000 22.983400 2.288470 24.328600 0.000019 0.000005 12.128600 24.872300 -27.064600 22.291600 -0.000001 0.000005 -1.124670 4.905860 9.260860 12.994500 -0.242716 -4.980390 89.079300 2.924410 -72.516300 -5.348130 -0.000001 -0.000004 -71.847000 22.555700 -6.712620 -24.328900 0.000322 -0.000009 0.972381 6.150170 -9.011770 -22.291500 -0.000108 -0.000004 -15.414000 5.095110 5.225450 -2.192480 -6.469440 -0.000000 -171.585000 -5.121390 -0.107228 39.081100 -0.000007 -0.000012 0.026654 -0.100577 14.842900 40.985400 -0.000006 -0.000013 -2.341430 13.966600 -68.997000 11.754300 -0.000000 0.000003 -0.002265 0.199621 -8.477660 -2.192510 6.469440 -0.000001 179.070000 10.499200 -177.262000 -39.081100 -0.002282 -0.040193 0.013880 -0.048080 12.371000 -40.985400 0.000008 0.000006 -4.994930 5.046660 -69.065100 -11.754300 -0.000006 -0.000006 -0.010472 0.274798 -5.408100
0.000000 0.000000 0.000000 0.000000 0.000000 -0.000000 -3.442810 92.921300 1.997860 87.835200 4.481170 1.024870 15.735700 0.000005 -0.000001 65.899700 87.233100 -64.984800 8.984550 -0.406207 -0.000000 -2.696220 -2.342330 1.774900 16.377300 -0.000001 -0.000001 2.264040 1.450340 -1.333070 6.456720 -0.000001 -0.000000 2.157920 2.575170 -3.538610 12.994200 -0.242716 4.980390 -92.442100 7.381000 -71.635200 5.348090 -0.000007 -0.000001 -73.750600 22.268800 2.264890 24.328600 0.000019 0.000005 12.279600 24.854600 -27.377400 22.291600 -0.000001 0.000005 -1.147680 4.901340 9.351110 12.994500 -0.242716 -4.980390 89.105000 2.761200 -72.032500 -5.348130 -0.000001 -0.000004 -70.277800 19.490900 -7.765800 -24.328900 0.000322 -0.000009 0.926183 6.632970 -7.976060 -22.291500 -0.000108 -0.000004 -15.941000 5.106560 4.962880 -2.192480 -6.469440 -0.000000 -171.670000 -5.084420 -0.216706 39.081100 -0.000007 -0.000012 0.027859 -0.103711 15.036000 40.985400 -0.000006 -0.000013 -2.216220 13.718700 -69.120400 11.754300 -0.000000 0.000003 -0.002214 0.198995 -8.503100 -2.192510 6.469440 -0.000001 178.955000 10.577100 -177.220000 -39.081100 -0.002282 -0.040193 0.010428 -0.032897 12.167200 -40.985400 0.000008 0.000006 -5.299980 5.342800 -68.768000 -11.754300 -0.000006 -0.000006 -0.009831 0.270040 -5.602720
0.000000 0.000000 0.000000 0.000000 0.000000 -0.000000 -3.270850 92.937500 2.013900 87.773500 4.371250 0.968058 15.735700 0.000005 -0.000001 65.563900 87.218600 -64.971400 8.984550 -0.406207 -0.000000 -2.690120 -2.354400 1.129840 16.377300 -0.000001 -0.000001 2.194430 1.406790 -1.510780 6.456720 -0.000001 -0.000000 1.629490 2.525960 -4.106390 12.994200 -0.242716 4.980390 -92.448500 7.374270 -71.574300 5.348090 -0.000007 -0.000001 -73.122700 21.482000 2.266130 24.328600 0.000019 0.000005 12.364100 24.851200 -27.546200 22.291600 -0.000001 0.000005 -1.099050 4.899410 9.389750 12.994500 -0.242716 -4.980390 89.138100 2.576060 -71.494400 -5.348130 -0.000001 -0.000004 -67.611100 16.199600 -9.081740 -24.328900 0.000322 -0.000009 0.793040 6.810750 -6.666150 -22.291500 -0.000108 -0.000004 -16.783800 5.122850 4.585010 -2.192480 -6.469440 -0.000000 -171.754000 -5.085660 -0.254513 39.081100 -0.000007 -0.000012 0.028551 -0.105997 15.075400 40.985400 -0.000006 -0.000013 -2.097990 13.554800 -69.195600 11.754300 -0.000000 0.000003 -0.002149 0.198200 -8.535440 -2.192510 6.469440 -0.000001 178.810000 10.732800 -177.102000 -39.081100 -0.002282 -0.040193 0.005970 -0.012549 11.856500 -40.985400 0.000008 0.000006 -5.847450 5.704580 -68.512900 -11.754300 -0.000006 -0.000006 -0.010153 0.272444 -5.504400
0.000000 0.000000 0.000000 0.000000 0.000000 -0.000000 -3.037110 92.927800 2.037650 87.675400 4.181800 0.831712 15.735700 0.000005 -0.000001 65.794800 87.240300 -65.549700 8.984550 -0.406207 -0.000000 -2.727890 -2.284600 0.435836 16.377300 -0.000001 -0.000001 2.045270 1.321750 -1.776400 6.456720 -0.000001 -0.000000 1.079360 2.361590 -4.888520 12.994200 -0.242716 4.980390 -92.465300 7.412320 -71.544400 5.348090 -0.000007 -0.000001 -72.351000 20.732700 2.232570 24.328600 0.000019 0.000005 12.450200 24.935200 -27.640400 22.291600 -0.000001 0.000005 -0.916548 4.900060 9.376780 12.994500 -0.242716 -4.980390 89.224400 2.249660 -70.972900 -5.348130 -0.000001 -0.000004 -63.948400 12.358500 -10.604400 -24.328900 0.000322 -0.000009 0.703665 7.639840 -5.285880 -22.291500 -0.000108 -0.000004 -17.188400 5.118960 4.675840 -2.192480 -6.469440 -0.000000 -171.847000 -5.030600 -0.515547 39.081100 -0.000007 -0.000012 0.030114 -0.109234 15.412600 40.985400 -0.000006 -0.000013 -1.929280 13.287100 -69.328700 11.754300 -0.000000 0.000003 -0.002055 0.197033 -8.582910 -2.192510 6.469440 -0.000001 178.704000 10.903700 -177.181000 -39.081100 -0.002282 -0.040193 0.004568 -0.005931 11.739300 -40.985400 0.000008 0.000006 -6.111330 6.123710 -68.317400 -11.754300 -0.000006 -0.000006 -0.010418 0.274406 -5.424150
0.000000 0.000000 0.000000 0.000000 0.000000 -0.000000 -2.780760 92.942000 2.069290 87.620600 3.901700 0.744328 15.735700 0.000005 -0.000001 66.849300 87.245100 -67.013800 8.984550 -0.406207 -0.000000 -2.703880 -2.150350 -0.379786 16.377300 -0.000001 -0.000001 1.831660 1.178970 -2.161740 6.456720 -0.000001 -0.000000 0.331086 2.182130 -5.695430 12.994200 -0.242716 4.980390 -92.484400 7.428990 -71.450200 5.348090 -0.000007 -0.000001 -71.455200 20.043200 2.079210 24.328600 0.000019 0.000005 12.498100 25.075500 -27.610200 22.291600 -0.000001 0.000005 -0.824553 4.900700 9.363900 12.994500 -0.242716 -4.980390 89.351700 1.830090 -70.489800 -5.348130 -0.000001 -0.000004 -59.427800 7.660780 -12.233500 -24.328900 0.000322 -0.000009 0.621575 9.325300 -3.836740 -22.291500 -0.000108 -0.000004 -16.192600 5.118620 4.683610 -2.192480 -6.469440 -0.000000 -172.027000 -4.947670 -0.553717 39.081100 -0.000007 -0.000012 0.033353 -0.120303 15.495600 40.985400 -0.000006 -0.000013 -1.772860 12.883500 -69.508000 11.754300 -0.000000 0.000003 -0.002284 0.199849 -8.468370 -2.192510 6.469440 -0.000001 178.477000 11.003200 -177.063000 -39.081100 -0.002282 -0.040193 0.000676 0.013259 11.347700 -40.985400 0.000008 0.000006 -6.731490 6.609340 -67.891400 -11.754300 -0.000006 -0.000006 -0.010131 0.272283 -5.510970
